# xmcd CD database file
#
# Track frame offsets:
#	150
#	22513
#	43913
#	53050
#	71613
#	92988
#	113088
#	135950
#	162150
#	180725
#	202525
#	223913
#	249038
#	263738
#	280700
#	308837
#
# Disc length: 4266 seconds
#
# Revision: 0
# Processed by: cddbd v1.5.2PL0 Copyright (c) Steve Scherf et al.
# Submitted via: CDex 1.70beta2
#
DISCID=ce10a810
DTITLE=Andrew Firth - Fresh Starts
DYEAR=1993
DGENRE=Jazz
TTITLE0=Andrew Firth - Fresh Starts, New Beginnings
TTITLE1=Andrew Firth - Give Your Heart To Me
TTITLE2=Andrew Firth - After You've Gone
TTITLE3=Andrew Firth - Stop, Cause You're Gonna Hurt Somebody
TTITLE4=Andrew Firth - Movin' On
TTITLE5=Andrew Firth - No Way!
TTITLE6=Andrew Firth - Tokyo
TTITLE7=Andrew Firth - Rhapsody In Blue/Misty
TTITLE8=Andrew Firth - Broken Promises
TTITLE9=Andrew Firth - Mist On The Glen/We'll Remember
TTITLE10=Andrew Firth - Stop Wastin' My Time
TTITLE11=Andrew Firth - At The End Of The Rainbow
TTITLE12=Andrew Firth - The Funky Bee
TTITLE13=Andrew Firth - Rocky Mountains Dreaming
TTITLE14=Andrew Firth - Sing, Sing, Sing (Revisited)
TTITLE15=Andrew Firth - Fresh Starts, Reprise!
EXTD=YEAR: 1993
EXTT0=
EXTT1=
EXTT2=
EXTT3=
EXTT4=
EXTT5=
EXTT6=
EXTT7=
EXTT8=
EXTT9=
EXTT10=
EXTT11=
EXTT12=
EXTT13=
EXTT14=
EXTT15=
PLAYORDER=
